<?xml version="1.0" encoding="UTF-8"?>
<svg id="Capa_1" data-name="Capa 1" xmlns="http://www.w3.org/2000/svg" viewBox="0 0 512 512">
  <defs>
    <style>
      .cls-1 {
        fill: #151c33;
      }
    </style>
  </defs>
  <path d="M259,0c6.91,5.26,8.62,14.87,12.83,22.67,25.52,47.32,79.58,70.87,132,58.65,7.79-1.82,20.01-8.3,26.13-8.89,5.73-.56,10.12,4.83,9.38,10.41-.85,6.41-6.83,17.31-8.66,25.33-11.99,52.38,11.23,106.55,58.65,132,7.75,4.16,17.44,5.82,22.67,12.83v6c-5.23,7.01-14.92,8.67-22.67,12.83-47.42,25.44-70.64,79.62-58.65,132,1.84,8.03,7.82,18.92,8.66,25.33.74,5.58-3.65,10.96-9.38,10.41-6.12-.59-18.34-7.08-26.13-8.89-52.42-12.21-106.48,11.33-132,58.65-4.21,7.8-5.91,17.41-12.83,22.67h-6c-6.91-5.26-8.62-14.87-12.83-22.67-25.52-47.32-79.58-70.87-132-58.65-7.94,1.85-23.14,9.57-29.66,8.3-3.61-.71-6.39-5.55-5.97-9.13,2.79-8.88,6.64-16.82,8.77-26.02,12.09-52.25-11.31-106.6-58.65-132-7.75-4.16-17.44-5.82-22.67-12.83v-6c5.23-7.01,14.92-8.67,22.67-12.83,47.42-25.44,70.64-79.62,58.65-132-1.84-8.03-7.81-18.92-8.66-25.33s3.97-11,10.18-10.18c6.53.86,17.36,6.81,25.33,8.66,52.42,12.21,106.48-11.33,132-58.65,4.21-7.8,5.91-17.41,12.83-22.67h6ZM247,107v-61c-31.36,41.17-81.2,62.69-133,55.01l42.61,42.75c33.38-3.59,63.38-17.55,90.39-36.76ZM265,46v59.5c25.18,21.57,57.54,34.13,90.39,38.26l42.61-42.75c-46.7,6.6-92.61-9.49-124.03-44.48-3.07-3.42-5.01-7.94-8.97-10.53ZM107,247c19.25-26.73,33.17-57.26,36.76-90.39l-42.75-42.61c7.59,51.88-13.58,101.78-55.01,133h61ZM466,247c-41.43-31.2-62.55-81.14-55.01-133l-42.75,42.61c3.59,33.13,17.51,63.66,36.76,90.39h61ZM247,129c-7.55,3.66-14.49,8.73-21.98,12.52-16.48,8.34-34.05,13.88-52.03,17.99l33.73,34.35c14-3.18,27.53-9.56,40.28-16.36v-48.5ZM265,129v48.5c12.75,6.8,26.28,13.18,40.28,16.36l33.73-34.35c-17.87-4.22-35.6-9.69-52.03-17.99-7.49-3.78-14.43-8.87-21.98-12.52ZM129,247h48.5c3.62-6.01,17.71-35.29,16.35-40.28l-34.84-34.72c-3,18.78-9.73,38.17-18.49,55.02-3.53,6.79-8.28,13.04-11.52,19.98ZM383,247c-3.24-6.94-7.99-13.19-11.52-19.98-8.76-16.85-15.49-36.24-18.49-55.02l-34.84,34.72c-1.36,4.99,12.73,34.27,16.35,40.28h48.5ZM247,198l-25.01,10.51,25.01,25.49v-36ZM265,198v36l25.01-25.49-25.01-10.51ZM234,247l-25.49-25.01-10.51,25.01h36ZM278,247h36l-10.51-25.01-25.49,25.01ZM107,265h-61c41.43,31.22,62.6,81.12,55.01,133l42.75-42.61c-3.59-33.13-17.51-63.66-36.76-90.39ZM177.5,265h-48.5c3.24,6.94,7.99,13.19,11.52,19.98,8.76,16.85,15.49,36.24,18.49,55.02l34.85-34.72c-.19-5.1-13.86-39.5-16.36-40.28ZM234,265h-36l10.51,25.01,25.49-25.01ZM314,265h-36l25.49,25.01,10.51-25.01ZM383,265h-48.5c-6.51,12.85-13.67,26.06-16.35,40.28l34.84,34.72c3-18.78,9.73-38.17,18.49-55.02,3.53-6.79,8.28-13.04,11.52-19.98ZM466,265h-61c-19.25,26.73-33.17,57.26-36.76,90.39l42.75,42.61c-7.59-51.96,13.58-101.69,55.01-133ZM247,314v-36l-25.01,25.49,25.01,10.51ZM265,278v36l25.01-10.51-25.01-25.49ZM247,383v-48.5c-12.75-6.8-26.28-13.18-40.28-16.36l-33.73,34.35c17.98,4.11,35.55,9.65,52.03,17.99,7.49,3.79,14.43,8.86,21.98,12.52ZM265,334.5v48.5c7.55-3.65,14.49-8.74,21.98-12.52,16.43-8.3,34.16-13.77,52.03-17.99l-33.73-34.35c-14,3.18-27.53,9.56-40.28,16.36ZM247,405c-27.01-19.21-57-33.17-90.39-36.76l-42.61,42.75c51.8-7.68,101.64,13.84,133,55.01v-61ZM265,406.5v59.5c3.97-2.59,5.91-7.11,8.97-10.53,31.42-35,77.33-51.09,124.03-44.48l-42.61-42.75c-32.84,4.13-65.2,16.69-90.39,38.26Z"/>
  <g>
    <path class="cls-1" d="M129,247c3.24-6.94,7.99-13.19,11.52-19.98,8.76-16.85,15.49-36.24,18.49-55.02l34.84,34.72c1.36,4.99-12.73,34.27-16.35,40.28h-48.5Z"/>
    <path class="cls-1" d="M383,247h-48.5c-3.62-6.01-17.71-35.29-16.35-40.28l34.84-34.72c3,18.78,9.73,38.17,18.49,55.02,3.53,6.79,8.28,13.04,11.52,19.98Z"/>
    <path class="cls-1" d="M177.5,265c2.5.78,16.17,35.17,16.36,40.28l-34.85,34.72c-3-18.78-9.73-38.17-18.49-55.02-3.53-6.79-8.28-13.04-11.52-19.98h48.5Z"/>
    <path class="cls-1" d="M383,265c-3.24,6.94-7.99,13.19-11.52,19.98-8.76,16.85-15.49,36.24-18.49,55.02l-34.84-34.72c2.69-14.22,9.84-27.42,16.35-40.28h48.5Z"/>
    <path class="cls-1" d="M265,129c7.55,3.65,14.49,8.74,21.98,12.52,16.43,8.3,34.16,13.77,52.03,17.99l-33.73,34.35c-14-3.18-27.53-9.56-40.28-16.36v-48.5Z"/>
    <path class="cls-1" d="M265,334.5c12.75-6.8,26.28-13.18,40.28-16.36l33.73,34.35c-17.87,4.22-35.6,9.69-52.03,17.99-7.49,3.78-14.43,8.87-21.98,12.52v-48.5Z"/>
    <path class="cls-1" d="M247,129v48.5c-12.75,6.8-26.28,13.18-40.28,16.36l-33.73-34.35c17.98-4.11,35.55-9.65,52.03-17.99,7.49-3.79,14.43-8.86,21.98-12.52Z"/>
    <path class="cls-1" d="M247,383c-7.55-3.66-14.49-8.73-21.98-12.52-16.48-8.34-34.05-13.88-52.03-17.99l33.73-34.35c14,3.18,27.53,9.56,40.28,16.36v48.5Z"/>
    <polygon class="cls-1" points="247 198 247 234 221.99 208.51 247 198"/>
    <polygon class="cls-1" points="265 198 290.01 208.51 265 234 265 198"/>
    <polygon class="cls-1" points="234 247 198 247 208.51 221.99 234 247"/>
    <polygon class="cls-1" points="278 247 303.49 221.99 314 247 278 247"/>
    <polygon class="cls-1" points="234 265 208.51 290.01 198 265 234 265"/>
    <polygon class="cls-1" points="314 265 303.49 290.01 278 265 314 265"/>
    <polygon class="cls-1" points="247 314 221.99 303.49 247 278 247 314"/>
    <polygon class="cls-1" points="265 278 290.01 303.49 265 314 265 278"/>
  </g>
</svg>