<?xml version="1.0" encoding="UTF-8"?>
<svg id="Capa_1" data-name="Capa 1" xmlns="http://www.w3.org/2000/svg" viewBox="0 0 512 512">
  <defs>
    <style>
      .cls-1 {
        fill: #151c33;
      }
    </style>
  </defs>
  <path class="cls-1" d="M489.33,240.17c-47.42-25.44-70.64-79.62-58.65-132,1.84-8.03,7.82-18.92,8.66-25.33.74-5.58-3.65-10.96-9.38-10.41-6.12.59-18.34,7.08-26.13,8.89-52.42,12.21-106.48-11.33-132-58.65-4.21-7.8-5.91-17.41-12.83-22.67h-6c-6.91,5.26-8.62,14.87-12.83,22.67-25.52,47.32-79.58,70.87-132,58.65-7.97-1.86-18.8-7.8-25.33-8.66-6.21-.82-11,3.98-10.18,10.18.85,6.41,6.83,17.31,8.66,25.33,11.99,52.38-11.23,106.55-58.65,132-7.75,4.16-17.44,5.82-22.67,12.83v6c5.23,7.01,14.92,8.67,22.67,12.83,47.34,25.4,70.75,79.74,58.65,132-2.13,9.2-5.98,17.14-8.77,26.02-.42,3.57,2.36,8.42,5.97,9.13,6.51,1.27,21.71-6.45,29.66-8.3,52.42-12.21,106.48,11.33,132,58.65,4.21,7.8,5.91,17.41,12.83,22.67h6c6.91-5.26,8.62-14.87,12.83-22.67,25.52-47.32,79.58-70.87,132-58.65,7.79,1.82,20.01,8.3,26.13,8.89,5.73.56,10.12-4.83,9.38-10.41-.85-6.41-6.83-17.31-8.66-25.33-11.99-52.38,11.23-106.55,58.65-132,7.75-4.16,17.44-5.82,22.67-12.83v-6c-5.23-7.01-14.92-8.67-22.67-12.83ZM101.01,114l42.75,42.61c-3.59,33.13-17.51,63.66-36.76,90.39h-61c41.43-31.22,62.6-81.12,55.01-133ZM101.01,398c7.59-51.88-13.58-101.78-55.01-133h61c19.25,26.73,33.17,57.26,36.76,90.39l-42.75,42.61ZM247,466c-31.36-41.17-81.2-62.69-133-55.01l42.61-42.75c33.38,3.59,63.38,17.55,90.39,36.76v61ZM247,107c-27.01,19.21-57,33.17-90.39,36.76l-42.61-42.75c51.8,7.68,101.64-13.84,133-55.01v61ZM265,46c3.97,2.59,5.91,7.11,8.97,10.53,31.42,35,77.33,51.09,124.03,44.48l-42.61,42.75c-32.84-4.13-65.2-16.69-90.39-38.26v-59.5ZM273.97,455.47c-3.07,3.42-5.01,7.94-8.97,10.53v-59.5c25.18-21.57,57.54-34.13,90.39-38.26l42.61,42.75c-46.7-6.6-92.61,9.49-124.03,44.48ZM410.99,398l-42.75-42.61c3.59-33.13,17.51-63.66,36.76-90.39h61c-41.43,31.31-62.6,81.04-55.01,133ZM405,247c-19.25-26.73-33.17-57.26-36.76-90.39l42.75-42.61c-7.54,51.86,13.58,101.8,55.01,133h-61Z"/>
</svg>