<?xml version="1.0" encoding="UTF-8"?>
<svg id="Capa_1" data-name="Capa 1" xmlns="http://www.w3.org/2000/svg" viewBox="0 0 512 512">
  <defs>
    <style>
      .cls-1 {
        fill: #151c33;
      }
    </style>
  </defs>
  <path class="cls-1" d="M489.33,240.17c-47.42-25.44-70.64-79.62-58.65-132,1.84-8.03,7.82-18.92,8.66-25.33.74-5.58-3.65-10.96-9.38-10.41-6.12.59-18.34,7.08-26.13,8.89-52.42,12.21-106.48-11.33-132-58.65-4.21-7.8-5.91-17.41-12.83-22.67h-6c-6.91,5.26-8.62,14.87-12.83,22.67-25.52,47.32-79.58,70.87-132,58.65-7.97-1.86-18.8-7.8-25.33-8.66-6.21-.82-11,3.98-10.18,10.18.85,6.41,6.83,17.31,8.66,25.33,11.99,52.38-11.23,106.55-58.65,132-7.75,4.16-17.44,5.82-22.67,12.83v6c5.23,7.01,14.92,8.67,22.67,12.83,47.34,25.4,70.75,79.74,58.65,132-2.13,9.2-5.98,17.14-8.77,26.02-.42,3.57,2.36,8.42,5.97,9.13,6.51,1.27,21.71-6.45,29.66-8.3,52.42-12.21,106.48,11.33,132,58.65,4.21,7.8,5.91,17.41,12.83,22.67h6c6.91-5.26,8.62-14.87,12.83-22.67,25.52-47.32,79.58-70.87,132-58.65,7.79,1.82,20.01,8.3,26.13,8.89,5.73.56,10.12-4.83,9.38-10.41-.85-6.41-6.83-17.31-8.66-25.33-11.99-52.38,11.23-106.55,58.65-132,7.75-4.16,17.44-5.82,22.67-12.83v-6c-5.23-7.01-14.92-8.67-22.67-12.83Z"/>
</svg>